<?xml version="1.0" encoding="UTF-8"?>
<svg id="Layer_2" data-name="Layer 2" xmlns="http://www.w3.org/2000/svg" viewBox="0 0 24 24">
  <defs>
    <style>
      .cls-1 {
        fill: #fff;
      }

      .cls-2 {
        fill: none;
      }
    </style>
  </defs>
  <g id="Layer_1-2" data-name="Layer 1">
    <g>
      <path class="cls-2" d="m24,24H0C0,16,0,8,0,0c8,0,16,0,24,0,0,8,0,16,0,24ZM14.33,6.33c.16-2.37-.21-3.09-1.72-3.11-2.57-.04-5.14-.03-7.72,0-1.05.01-1.68.61-1.68,1.66-.02,4.21-.02,8.43,0,12.64,0,.98.55,1.63,1.54,1.66,2.11.06,4.23.02,6.45.02,0-3.05,0-5.97,0-8.89,0-2.41.73-3.34,3.13-3.97Zm6.47,8.19c0-1.51.02-3.02,0-4.53-.02-1.39-.56-1.96-1.91-1.98-1.38-.03-2.75-.02-4.13,0-1.38.02-1.94.57-1.95,1.95-.02,2.97-.02,5.95,0,8.92,0,1.32.56,1.89,1.84,1.92,1.42.03,2.84.03,4.26,0,1.29-.03,1.86-.59,1.88-1.88.03-1.46,0-2.93,0-4.39Z"/>
      <path class="cls-1" d="m14.33,6.33c-2.4.63-3.12,1.56-3.13,3.97,0,2.92,0,5.83,0,8.89-2.22,0-4.34.04-6.45-.02-.99-.03-1.54-.68-1.54-1.66-.02-4.21-.02-8.43,0-12.64,0-1.06.63-1.65,1.68-1.66,2.57-.03,5.14-.04,7.72,0,1.5.03,1.88.75,1.72,3.11Z"/>
      <path class="cls-1" d="m20.8,14.52c0-1.51.02-3.02,0-4.53-.02-1.39-.56-1.96-1.91-1.98-1.38-.03-2.75-.02-4.13,0-1.38.02-1.94.57-1.95,1.95-.02,2.97-.02,5.95,0,8.92,0,1.32.56,1.89,1.84,1.92,1.42.03,2.84.03,4.26,0,1.29-.03,1.86-.59,1.88-1.88.03-1.46,0-2.93,0-4.39Zm-2.6-4.15c0,.3-.24.54-.54.54h-1.52c-.3,0-.54-.24-.54-.54h0c0-.3.24-.54.54-.54h1.52c.3,0,.54.24.54.54h0Z"/>
    </g>
  </g>
</svg>