<svg width="24" height="24" viewBox="0 0 24 24" fill="none" xmlns="http://www.w3.org/2000/svg">
<path fill-rule="evenodd" clip-rule="evenodd" d="M11.9992 2.50015C6.75247 2.50015 2.49918 6.75345 2.49918 12.0002C2.49918 17.2469 6.75247 21.5002 11.9992 21.5002C17.2459 21.5002 21.4992 17.2469 21.4992 12.0002C21.4992 6.75345 17.2459 2.50015 11.9992 2.50015ZM11.0234 13.248C11.0234 13.7471 11.3105 14.1162 11.8301 14.1162C12.2949 14.1162 12.5273 13.8359 12.5957 13.3848C12.6504 12.7627 12.8691 12.4346 13.7646 11.915C14.6943 11.3613 15.2139 10.6436 15.2139 9.59766C15.2139 8.05273 13.9424 7 12.0898 7C10.6816 7 9.61523 7.57422 9.19141 8.50391C9.06152 8.76367 9 9.0166 9 9.31055C9 9.76855 9.28027 10.0557 9.75195 10.0557C10.1279 10.0557 10.3809 9.88477 10.5312 9.46094C10.75 8.77051 11.2559 8.39453 12.0146 8.39453C12.8555 8.39453 13.4365 8.91406 13.4365 9.65918C13.4365 10.3154 13.1494 10.6914 12.3018 11.2041C11.4473 11.71 11.0234 12.2705 11.0234 13.1182V13.248ZM10.8457 16.1123C10.8457 16.6523 11.29 17.083 11.8438 17.083C12.3975 17.083 12.835 16.6523 12.835 16.1123C12.835 15.5723 12.3975 15.1484 11.8438 15.1484C11.29 15.1484 10.8457 15.5723 10.8457 16.1123Z" fill="white"/>
</svg>
