<svg width="24" height="24" viewBox="0 0 24 24" fill="none" xmlns="http://www.w3.org/2000/svg">
<path d="M18.1482 5.7918C16.5907 4.33444 14.4117 3.42899 12 3.42899C7.26612 3.42899 3.42856 6.91768 3.42856 11.2212C3.42856 13.6756 4.57505 15.6875 6.52595 17.1158C6.77543 17.2984 7.00522 18.3133 6.44912 19.1658C6.22171 19.5144 5.97137 19.7856 5.77864 19.9944C5.50006 20.2961 5.34187 20.4675 5.54739 20.5537C5.76175 20.6436 7.02836 20.6881 7.94254 20.1754C8.65807 19.7741 9.09143 19.3738 9.38328 19.1043C9.62459 18.8814 9.76915 18.7478 9.89646 18.777C10.3529 18.8817 10.824 18.9531 11.3063 18.9883C11.3129 18.9887 11.3195 18.9892 11.3261 18.9897C11.5484 19.0054 11.7732 19.0134 12 19.0134C16.7339 19.0134 20.5714 15.5247 20.5714 11.2212C20.5714 9.1101 19.6479 7.19509 18.1482 5.7918Z" fill="white" stroke="white" stroke-width="1.37143" stroke-linecap="round"/>
</svg>
